<svg width="22" height="19" viewBox="0 0 22 19" fill="none" xmlns="http://www.w3.org/2000/svg">
<g clip-path="url(#clip0)">
<path d="M18.7368 13.6464C17.4966 13.2302 16.9062 12.7512 16.9062 12.1649V11.4711C17.3987 11.056 17.7166 10.4772 17.7986 9.84641C18.2563 9.37645 18.5675 9.06761 18.5675 8.46337C18.5638 8.15987 18.4521 7.86711 18.2517 7.63534C18.3478 7.09376 18.5217 5.80471 18.1831 5.03039C18.0105 4.6108 17.7376 4.23778 17.3872 3.94263C17.0368 3.64747 16.6192 3.43877 16.1693 3.33404C16.1554 3.12786 16.0689 2.93276 15.9246 2.78183C15.7803 2.6309 15.587 2.53345 15.3776 2.50601C14.6554 2.54805 13.9505 2.7387 13.3089 3.06549C13.0854 2.55514 12.7396 2.1049 12.3007 1.75278C11.8618 1.40066 11.3427 1.15701 10.7872 1.04241C10.7893 1.0126 10.7893 0.982693 10.7872 0.952889C10.7048 0.621676 10.5675 0.0577181 9.87185 -0.00494385C8.37641 0.112102 6.95711 0.688623 5.81693 1.64217C5.39403 1.98305 5.05302 2.41078 4.81811 2.89501C4.5832 3.37924 4.46014 3.9081 4.45767 4.44406C4.50262 5.12261 4.63329 5.79312 4.84668 6.44029C4.70558 6.59987 4.59849 6.78541 4.53168 6.98601C4.46488 7.18661 4.43972 7.39824 4.45767 7.60848C4.4711 7.92131 4.56819 8.22523 4.73924 8.4899C4.91029 8.75457 5.14933 8.97075 5.43249 9.11685C5.50115 9.88607 5.82222 10.613 6.34783 11.1892V12.8363C5.60465 13.6396 4.63478 14.2097 3.56064 14.4744C2.58089 14.6556 1.69378 15.1586 1.04624 15.9001C0.398707 16.6416 0.029582 17.5772 0 18.5519C0 18.6707 0.0482182 18.7845 0.134047 18.8684C0.219876 18.9524 0.336285 18.9995 0.457666 18.9995H17.7391C17.8605 18.9995 17.9769 18.9524 18.0627 18.8684C18.1486 18.7845 18.1968 18.6707 18.1968 18.5519C18.1687 18.235 18.0963 17.9232 17.9817 17.6254H21.5423C21.604 17.6252 21.665 17.6128 21.7216 17.589C21.7782 17.5651 21.8293 17.5303 21.8719 17.4867C21.9146 17.4434 21.9479 17.3922 21.9699 17.3361C21.9919 17.2799 22.0022 17.22 22 17.16C21.9954 17.0436 21.8627 14.7698 18.7368 13.6464ZM0.947368 18.1223C1.06972 17.4363 1.40359 16.8032 1.90421 16.308C2.40482 15.8129 3.04827 15.4792 3.74828 15.3517C5.73455 14.9847 7.12128 13.351 7.18078 13.2839C7.24636 13.2039 7.28191 13.1044 7.28146 13.0019V10.9788C7.28131 10.9163 7.2678 10.8546 7.24179 10.7976C7.21578 10.7405 7.17785 10.6894 7.13043 10.6476C6.64073 10.1555 6.35531 9.50315 6.32952 8.81696C6.32945 8.72911 6.30294 8.64321 6.25329 8.56999C6.20365 8.49677 6.13307 8.43945 6.05034 8.40519C6.05034 8.40519 5.373 8.11425 5.373 7.5861C5.373 7.13852 5.51487 7.049 5.51487 7.03557C5.57326 7.01872 5.62762 6.99064 5.67477 6.95298C5.72192 6.91532 5.76092 6.86884 5.78947 6.81626C5.84381 6.70757 5.85363 6.58268 5.81693 6.46714C5.57846 5.81415 5.4247 5.13448 5.35927 4.44406C5.36218 4.05685 5.44845 3.67459 5.61247 3.32216C5.77648 2.96973 6.01457 2.65505 6.31121 2.39859C7.28686 1.5761 8.48871 1.05302 9.76659 0.894703C9.81065 0.983964 9.84147 1.07891 9.85812 1.17668C9.89266 1.32946 9.94011 1.47917 10 1.62427C10.0313 1.69796 10.0822 1.76214 10.1473 1.81014C10.2125 1.85814 10.2896 1.88823 10.3707 1.89729C10.8386 1.95372 11.2821 2.13286 11.6543 2.41573C12.0266 2.69861 12.3136 3.07469 12.4851 3.50413C12.5194 3.58231 12.547 3.66316 12.5675 3.74582C12.5649 3.75762 12.5649 3.76983 12.5675 3.78163C12.5778 3.81381 12.5854 3.84673 12.5904 3.8801C12.6789 4.56308 12.6666 5.25496 12.5538 5.93451C12.4939 5.92565 12.4329 5.92849 12.3742 5.94286C12.3154 5.95723 12.2602 5.98285 12.2117 6.01824C12.1632 6.05362 12.1223 6.09806 12.0915 6.149C12.0606 6.19993 12.0404 6.25634 12.032 6.31496C12.0163 6.4311 12.0477 6.54865 12.1196 6.64238C12.1915 6.7361 12.2981 6.79853 12.4165 6.81626C12.4769 6.84324 12.5325 6.8795 12.5812 6.92368L12.6087 6.95053C12.7705 7.08662 12.8708 7.27963 12.8879 7.48764C12.8879 7.85913 12.7551 8.00236 12.1236 8.62003L12.0595 8.68269C12.0163 8.72414 11.9818 8.77357 11.9583 8.82812C11.9347 8.88267 11.9224 8.94126 11.9222 9.00047C11.8975 9.32525 11.8032 9.64132 11.6455 9.92816C11.4879 10.215 11.2703 10.4662 11.0069 10.6655C10.9477 10.7067 10.8994 10.761 10.866 10.8241C10.8326 10.8871 10.815 10.957 10.8146 11.028V12.1828C10.8146 13.8344 12.5355 14.6042 13.8215 15.0339C15.0785 15.4152 16.1536 16.2253 16.8513 17.3166C16.8787 17.3569 16.897 17.3972 16.9199 17.4375C17.0361 17.6483 17.1296 17.8703 17.1991 18.0999L0.947368 18.1223ZM17.5378 16.7303C16.7213 15.5364 15.5167 14.6469 14.119 14.2059C12.4851 13.6598 11.7208 13.0198 11.7208 12.2007V11.2608C12.3483 10.7418 12.7508 10.0091 12.8467 9.21084C13.4737 8.59765 13.8169 8.23958 13.8169 7.50554C13.8085 7.12985 13.666 6.76887 13.4142 6.48504C13.5726 5.65756 13.6157 4.81289 13.5423 3.97409C14.0718 3.70111 14.6441 3.51655 15.2357 3.42804C15.2357 3.46832 15.2632 3.5265 15.2769 3.57126C15.3028 3.69693 15.3411 3.81985 15.3913 3.93828C15.423 4.01259 15.4745 4.07717 15.5406 4.12523C15.6066 4.17327 15.6847 4.20301 15.7666 4.21131C16.1154 4.25531 16.4456 4.39032 16.7226 4.60217C16.9996 4.81402 17.2132 5.0949 17.341 5.41532C17.484 5.98711 17.5012 6.58212 17.3913 7.1609C17.2857 7.16595 17.1851 7.20661 17.1067 7.27596C17.0283 7.34532 16.9768 7.43909 16.9611 7.54135C16.9513 7.59988 16.9536 7.65973 16.9677 7.71741C16.9818 7.77509 17.0075 7.82946 17.0432 7.87735C17.079 7.92524 17.1241 7.9657 17.176 7.99638C17.2279 8.02706 17.2856 8.04735 17.3455 8.05607C17.4281 8.10292 17.4987 8.16759 17.5518 8.24516C17.605 8.32273 17.6393 8.41114 17.6522 8.50365C17.6522 8.74983 17.5789 8.83487 17.0801 9.32274L17.0252 9.37645C16.9406 9.45981 16.893 9.57234 16.8924 9.68976C16.8715 9.93058 16.7986 10.1643 16.6787 10.3757C16.5588 10.5871 16.3946 10.7712 16.1968 10.9161C16.137 10.9578 16.0883 11.0128 16.0549 11.0767C16.0214 11.1406 16.0042 11.2114 16.0046 11.2832V12.1783C16.0046 13.5211 17.3776 14.1567 18.4302 14.5013C20.1648 15.1324 20.7643 16.1395 20.9748 16.7392L17.5378 16.7303Z" fill="#D12421"/>
</g>
<defs>
<clipPath id="clip0">
<rect width="22" height="19" fill="white"/>
</clipPath>
</defs>
</svg>
