<svg width="22" height="23" viewBox="0 0 22 23" fill="none" xmlns="http://www.w3.org/2000/svg">
<path d="M21.5696 2.00729H18.1827V0.429826C18.1827 0.315829 18.1374 0.206501 18.0567 0.125893C17.976 0.0452851 17.8665 0 17.7523 0L15.7167 0C15.6026 0 15.4931 0.0452851 15.4124 0.125893C15.3317 0.206501 15.2864 0.315829 15.2864 0.429826V2.00729H6.67919V0.429826C6.67919 0.315829 6.63385 0.206501 6.55314 0.125893C6.47243 0.0452851 6.36297 0 6.24883 0L4.20462 0C4.09048 0 3.98101 0.0452851 3.90031 0.125893C3.8196 0.206501 3.77426 0.315829 3.77426 0.429826V2.00729H0.43036C0.316221 2.00729 0.206758 2.05257 0.12605 2.13318C0.0453414 2.21379 0 2.32312 0 2.43711L0 22.5702C0 22.6842 0.0453414 22.7935 0.12605 22.8741C0.206758 22.9547 0.316221 23 0.43036 23H21.5696C21.6838 23 21.7932 22.9547 21.874 22.8741C21.9547 22.7935 22 22.6842 22 22.5702V2.43711C22 2.32312 21.9547 2.21379 21.874 2.13318C21.7932 2.05257 21.6838 2.00729 21.5696 2.00729ZM16.1471 0.859652H17.322V4.01458H16.1471V0.859652ZM4.63498 0.859652H5.80986V4.01458H4.63498V0.859652ZM21.1393 22.1403H0.86072V7.1652H21.1393V22.1403ZM21.1393 6.30555H0.86072V2.86694H3.77426V4.4444C3.77426 4.5584 3.8196 4.66773 3.90031 4.74834C3.98101 4.82894 4.09048 4.87423 4.20462 4.87423H6.24022C6.35436 4.87423 6.46382 4.82894 6.54453 4.74834C6.62524 4.66773 6.67058 4.5584 6.67058 4.4444V2.86694H15.2778V4.4444C15.2778 4.5584 15.3231 4.66773 15.4038 4.74834C15.4845 4.82894 15.594 4.87423 15.7081 4.87423H17.7437C17.8579 4.87423 17.9673 4.82894 18.0481 4.74834C18.1288 4.66773 18.1741 4.5584 18.1741 4.4444V2.86694H21.1307L21.1393 6.30555Z" fill="#D12421"/>
<path d="M17.7524 9.30566H4.20465C4.09051 9.30566 3.98105 9.35095 3.90034 9.43156C3.81963 9.51217 3.77429 9.62149 3.77429 9.73549V19.845C3.77429 19.959 3.81963 20.0683 3.90034 20.1489C3.98105 20.2295 4.09051 20.2748 4.20465 20.2748H17.7524C17.8665 20.2748 17.976 20.2295 18.0567 20.1489C18.1374 20.0683 18.1827 19.959 18.1827 19.845V9.73549C18.1827 9.62149 18.1374 9.51217 18.0567 9.43156C17.976 9.35095 17.8665 9.30566 17.7524 9.30566ZM7.18705 19.4152H4.63501V16.8362H7.18705V19.4152ZM7.18705 15.9766H4.63501V13.4793H7.18705V15.9766ZM7.18705 12.6325H4.63501V10.1653H7.18705V12.6325ZM10.5697 19.4281H8.04777V16.8491H10.5697V19.4281ZM10.5697 15.9895H8.04777V13.4793H10.5697V15.9895ZM10.5697 12.6454H8.04777V10.1653H10.5697V12.6454ZM13.8878 19.441H11.4304V16.862H13.8878V19.441ZM13.8878 16.0024H11.4304V13.4793H13.8878V16.0024ZM13.8878 12.6583H11.4304V10.1653H13.8878V12.6583ZM17.3306 19.4539H14.7485V16.8749H17.3306V19.4539ZM17.3306 16.0153H14.7485V13.4793H17.3306V16.0153ZM17.3306 12.6712H14.7485V10.1653H17.3306V12.6712Z" fill="#D12421"/>
</svg>
