<svg width="30" height="27" viewBox="0 0 30 27" fill="none" xmlns="http://www.w3.org/2000/svg">
<g clip-path="url(#clip0)">
<path d="M29.1023 5.07418H10.9874C10.7494 5.07418 10.521 4.97888 10.3527 4.80925C10.1843 4.63962 10.0898 4.40955 10.0898 4.16966C10.0898 3.92977 10.1843 3.6997 10.3527 3.53007C10.521 3.36043 10.7494 3.26514 10.9874 3.26514H29.1023C29.3404 3.26514 29.5687 3.36043 29.7371 3.53007C29.9054 3.6997 30 3.92977 30 4.16966C30 4.40955 29.9054 4.63962 29.7371 4.80925C29.5687 4.97888 29.3404 5.07418 29.1023 5.07418Z" fill="white"/>
<path d="M3.21364 7.63408L0.305205 4.82102C0.1326 4.65429 0.0327938 4.4253 0.0277435 4.18443C0.0226931 3.94355 0.112812 3.71052 0.278275 3.53659C0.443737 3.36267 0.67099 3.2621 0.91004 3.25701C1.14909 3.25193 1.38036 3.34273 1.55296 3.50946L3.06104 4.97479L6.86714 0.32554C7.01951 0.140821 7.23846 0.0246588 7.47583 0.00260679C7.7132 -0.0194452 7.94953 0.0544197 8.13285 0.207952C8.31617 0.361484 8.43145 0.582108 8.45334 0.821287C8.47522 1.06047 8.40192 1.29861 8.24955 1.48333L3.21364 7.63408Z" fill="white"/>
<path d="M29.0754 14.7526H10.9605C10.7224 14.7526 10.4941 14.6574 10.3258 14.4877C10.1574 14.3181 10.0628 14.088 10.0628 13.8481C10.0628 13.6082 10.1574 13.3782 10.3258 13.2085C10.4941 13.0389 10.7224 12.9436 10.9605 12.9436H29.0754C29.3135 12.9436 29.5418 13.0389 29.7101 13.2085C29.8785 13.3782 29.9731 13.6082 29.9731 13.8481C29.9731 14.088 29.8785 14.3181 29.7101 14.4877C29.5418 14.6574 29.3135 14.7526 29.0754 14.7526Z" fill="white"/>
<path d="M3.18671 17.3125L0.278276 14.4723C0.183025 14.3931 0.105015 14.295 0.0491261 14.184C-0.00676287 14.0731 -0.039329 13.9517 -0.0465354 13.8275C-0.0537418 13.7032 -0.0354336 13.5788 0.00724425 13.4621C0.0499221 13.3453 0.116052 13.2387 0.201497 13.1488C0.286942 13.059 0.389865 12.9879 0.503828 12.9399C0.617791 12.892 0.740344 12.8683 0.863821 12.8703C0.987298 12.8722 1.10904 12.8999 1.22144 12.9514C1.33384 13.0029 1.43448 13.0773 1.51706 13.1698L3.03411 14.6532L6.83124 10.013C6.98242 9.82712 7.2007 9.70934 7.43807 9.68559C7.5556 9.67383 7.67428 9.68551 7.78733 9.71997C7.90038 9.75443 8.00559 9.81098 8.09695 9.88641C8.18831 9.96184 8.26403 10.0547 8.31979 10.1596C8.37555 10.2645 8.41025 10.3794 8.42192 10.4979C8.43359 10.6163 8.422 10.7359 8.3878 10.8498C8.3536 10.9637 8.29748 11.0697 8.22262 11.1618L3.18671 17.3125Z" fill="white"/>
<path d="M29.0754 24.4221H10.9605C10.7224 24.4221 10.4941 24.3268 10.3258 24.1572C10.1574 23.9875 10.0628 23.7575 10.0628 23.5176C10.0628 23.2777 10.1574 23.0476 10.3258 22.878C10.4941 22.7083 10.7224 22.613 10.9605 22.613H29.0754C29.3135 22.613 29.5418 22.7083 29.7101 22.878C29.8785 23.0476 29.9731 23.2777 29.9731 23.5176C29.9731 23.7575 29.8785 23.9875 29.7101 24.1572C29.5418 24.3268 29.3135 24.4221 29.0754 24.4221Z" fill="white"/>
<path d="M3.18671 27L0.278276 24.1779C0.183025 24.0987 0.105015 24.0006 0.0491261 23.8896C-0.00676286 23.7786 -0.0393289 23.6573 -0.0465354 23.533C-0.0537418 23.4088 -0.0354336 23.2844 0.00724426 23.1677C0.0499221 23.0509 0.116052 22.9442 0.201497 22.8544C0.286942 22.7646 0.389865 22.6934 0.503828 22.6455C0.617791 22.5976 0.740344 22.5739 0.863821 22.5758C0.987298 22.5778 1.10904 22.6054 1.22144 22.657C1.33384 22.7085 1.43448 22.7829 1.51706 22.8754L3.03411 24.3407L6.83124 19.6915C6.98293 19.5118 7.19829 19.3989 7.43138 19.377C7.66448 19.355 7.89687 19.4257 8.079 19.5739C8.25374 19.7221 8.36587 19.9318 8.39256 20.1603C8.41924 20.3889 8.35847 20.6191 8.22262 20.804L3.18671 27Z" fill="white"/>
</g>
<defs>
<clipPath id="clip0">
<rect width="30" height="27" fill="white"/>
</clipPath>
</defs>
</svg>
