<svg width="25" height="19" viewBox="0 0 25 19" fill="none" xmlns="http://www.w3.org/2000/svg">
<g clip-path="url(#clip0)">
<path d="M21.7368 13.6464C20.4966 13.2302 19.9062 12.7512 19.9062 12.1649V11.4711C20.3987 11.056 20.7166 10.4772 20.7986 9.84641C21.2563 9.37645 21.5675 9.06761 21.5675 8.46337C21.5638 8.15987 21.4521 7.86711 21.2517 7.63534C21.3478 7.09376 21.5217 5.80471 21.1831 5.03039C21.0105 4.6108 20.7376 4.23778 20.3872 3.94263C20.0368 3.64747 19.6192 3.43877 19.1693 3.33404C19.1554 3.12786 19.0689 2.93276 18.9246 2.78183C18.7803 2.6309 18.587 2.53345 18.3776 2.50601C17.6554 2.54805 16.9505 2.7387 16.3089 3.06549C16.0854 2.55514 15.7396 2.1049 15.3007 1.75278C14.8618 1.40066 14.3427 1.15701 13.7872 1.04241C13.7893 1.0126 13.7893 0.982693 13.7872 0.952889C13.7048 0.621676 13.5675 0.0577181 12.8719 -0.00494385C11.3764 0.112102 9.95711 0.688623 8.81693 1.64217C8.39403 1.98305 8.05302 2.41078 7.81811 2.89501C7.5832 3.37924 7.46014 3.9081 7.45767 4.44406C7.50262 5.12261 7.63329 5.79312 7.84668 6.44029C7.70558 6.59987 7.59849 6.78541 7.53168 6.98601C7.46488 7.18661 7.43972 7.39824 7.45767 7.60848C7.4711 7.92131 7.56819 8.22523 7.73924 8.4899C7.91029 8.75457 8.14933 8.97075 8.43249 9.11685C8.50115 9.88607 8.82222 10.613 9.34783 11.1892V12.8363C8.60465 13.6396 7.63478 14.2097 6.56064 14.4744C5.58089 14.6556 4.69378 15.1586 4.04624 15.9001C3.39871 16.6416 3.02958 17.5772 3 18.5519C3 18.6707 3.04822 18.7845 3.13405 18.8684C3.21988 18.9524 3.33629 18.9995 3.45767 18.9995H20.7391C20.8605 18.9995 20.9769 18.9524 21.0627 18.8684C21.1486 18.7845 21.1968 18.6707 21.1968 18.5519C21.1687 18.235 21.0963 17.9232 20.9817 17.6254H24.5423C24.604 17.6252 24.665 17.6128 24.7216 17.589C24.7782 17.5651 24.8293 17.5303 24.8719 17.4867C24.9146 17.4434 24.9479 17.3922 24.9699 17.3361C24.9919 17.2799 25.0022 17.22 25 17.16C24.9954 17.0436 24.8627 14.7698 21.7368 13.6464ZM3.94737 18.1223C4.06972 17.4363 4.40359 16.8032 4.90421 16.308C5.40482 15.8129 6.04827 15.4792 6.74828 15.3517C8.73455 14.9847 10.1213 13.351 10.1808 13.2839C10.2464 13.2039 10.2819 13.1044 10.2815 13.0019V10.9788C10.2813 10.9163 10.2678 10.8546 10.2418 10.7976C10.2158 10.7405 10.1778 10.6894 10.1304 10.6476C9.64073 10.1555 9.35531 9.50315 9.32952 8.81696C9.32945 8.72911 9.30294 8.64321 9.25329 8.56999C9.20365 8.49677 9.13307 8.43945 9.05034 8.40519C9.05034 8.40519 8.373 8.11425 8.373 7.5861C8.373 7.13852 8.51487 7.049 8.51487 7.03557C8.57326 7.01872 8.62762 6.99064 8.67477 6.95298C8.72192 6.91532 8.76092 6.86884 8.78947 6.81626C8.84381 6.70757 8.85363 6.58268 8.81693 6.46714C8.57846 5.81415 8.4247 5.13448 8.35927 4.44406C8.36218 4.05685 8.44845 3.67459 8.61247 3.32216C8.77648 2.96973 9.01457 2.65505 9.31121 2.39859C10.2869 1.5761 11.4887 1.05302 12.7666 0.894703C12.8106 0.983964 12.8415 1.07891 12.8581 1.17668C12.8927 1.32946 12.9401 1.47917 13 1.62427C13.0313 1.69796 13.0822 1.76214 13.1473 1.81014C13.2125 1.85814 13.2896 1.88823 13.3707 1.89729C13.8386 1.95372 14.2821 2.13286 14.6543 2.41573C15.0266 2.69861 15.3136 3.07469 15.4851 3.50413C15.5194 3.58231 15.547 3.66316 15.5675 3.74582C15.5649 3.75762 15.5649 3.76983 15.5675 3.78163C15.5778 3.81381 15.5854 3.84673 15.5904 3.8801C15.6789 4.56308 15.6666 5.25496 15.5538 5.93451C15.4939 5.92565 15.4329 5.92849 15.3742 5.94286C15.3154 5.95723 15.2602 5.98285 15.2117 6.01824C15.1632 6.05362 15.1223 6.09806 15.0915 6.149C15.0606 6.19993 15.0404 6.25634 15.032 6.31496C15.0163 6.4311 15.0477 6.54865 15.1196 6.64238C15.1915 6.7361 15.2981 6.79853 15.4165 6.81626C15.4769 6.84324 15.5325 6.8795 15.5812 6.92368L15.6087 6.95053C15.7705 7.08662 15.8708 7.27963 15.8879 7.48764C15.8879 7.85913 15.7551 8.00236 15.1236 8.62003L15.0595 8.68269C15.0163 8.72414 14.9818 8.77357 14.9583 8.82812C14.9347 8.88267 14.9224 8.94126 14.9222 9.00047C14.8975 9.32525 14.8032 9.64132 14.6455 9.92816C14.4879 10.215 14.2703 10.4662 14.0069 10.6655C13.9477 10.7067 13.8994 10.761 13.866 10.8241C13.8326 10.8871 13.815 10.957 13.8146 11.028V12.1828C13.8146 13.8344 15.5355 14.6042 16.8215 15.0339C18.0785 15.4152 19.1536 16.2253 19.8513 17.3166C19.8787 17.3569 19.897 17.3972 19.9199 17.4375C20.0361 17.6483 20.1296 17.8703 20.1991 18.0999L3.94737 18.1223ZM20.5378 16.7303C19.7213 15.5364 18.5167 14.6469 17.119 14.2059C15.4851 13.6598 14.7208 13.0198 14.7208 12.2007V11.2608C15.3483 10.7418 15.7508 10.0091 15.8467 9.21084C16.4737 8.59765 16.8169 8.23958 16.8169 7.50554C16.8085 7.12985 16.666 6.76887 16.4142 6.48504C16.5726 5.65756 16.6157 4.81289 16.5423 3.97409C17.0718 3.70111 17.6441 3.51655 18.2357 3.42804C18.2357 3.46832 18.2632 3.5265 18.2769 3.57126C18.3028 3.69693 18.3411 3.81985 18.3913 3.93828C18.423 4.01259 18.4745 4.07717 18.5406 4.12523C18.6066 4.17327 18.6847 4.20301 18.7666 4.21131C19.1154 4.25531 19.4456 4.39032 19.7226 4.60217C19.9996 4.81402 20.2132 5.0949 20.341 5.41532C20.484 5.98711 20.5012 6.58212 20.3913 7.1609C20.2857 7.16595 20.1851 7.20661 20.1067 7.27596C20.0283 7.34532 19.9768 7.43909 19.9611 7.54135C19.9513 7.59988 19.9536 7.65973 19.9677 7.71741C19.9818 7.77509 20.0075 7.82946 20.0432 7.87735C20.079 7.92524 20.1241 7.9657 20.176 7.99638C20.2279 8.02706 20.2856 8.04735 20.3455 8.05607C20.4281 8.10292 20.4987 8.16759 20.5518 8.24516C20.605 8.32273 20.6393 8.41114 20.6522 8.50365C20.6522 8.74983 20.5789 8.83487 20.0801 9.32274L20.0252 9.37645C19.9406 9.45981 19.893 9.57234 19.8924 9.68976C19.8715 9.93058 19.7986 10.1643 19.6787 10.3757C19.5588 10.5871 19.3946 10.7712 19.1968 10.9161C19.137 10.9578 19.0883 11.0128 19.0549 11.0767C19.0214 11.1406 19.0042 11.2114 19.0046 11.2832V12.1783C19.0046 13.5211 20.3776 14.1567 21.4302 14.5013C23.1648 15.1324 23.7643 16.1395 23.9748 16.7392L20.5378 16.7303Z" fill="#D12421"/>
</g>
<path d="M5.09409 12.1698C5.09409 12.7562 4.5037 13.2351 3.26343 13.6514C0.137569 14.7748 0.00484562 17.0485 0.000268936 17.1649C-0.00190639 17.225 0.00832176 17.2849 0.0303383 17.341C0.0523548 17.3972 0.0857115 17.4484 0.128416 17.4916C0.170955 17.5353 0.22207 17.5701 0.278694 17.5939C0.335319 17.6178 0.396286 17.6302 0.457935 17.6304H4.01858L4.46251 16.7352L1.02544 16.7442C1.23597 16.1444 1.83551 15.1373 3.57006 14.5062C4.62269 14.1616 5.99569 13.526 5.99569 12.1833V11.2881C5.99609 11.2163 5.97883 11.1455 5.94538 11.0817C5.91192 11.0178 5.86325 10.9627 5.80347 10.9211C5.60567 10.7762 5.44143 10.592 5.32154 10.3806C5.20165 10.1693 5.12882 9.93553 5.10782 9.6947C5.10732 9.57728 5.05965 9.46476 4.9751 9.38139L4.92018 9.32768C4.42132 8.83981 4.34809 8.75477 4.34809 8.5086C4.36099 8.41609 4.39532 8.32768 4.44846 8.25011C4.5016 8.17254 4.57215 8.10786 4.65473 8.06101C4.71472 8.0523 4.77233 8.03201 4.82423 8.00133C4.87613 7.97065 4.92127 7.93019 4.95704 7.88229C4.99281 7.8344 5.01849 7.78004 5.03259 7.72235C5.04669 7.66467 5.04893 7.60483 5.03917 7.54629C5.02344 7.44404 4.97199 7.35026 4.89356 7.28091C4.81513 7.21156 4.71457 7.1709 4.60896 7.16584C4.49907 6.58707 4.51624 5.99206 4.65931 5.42026C4.78706 5.09984 5.00065 4.81897 5.27767 4.60712C5.55469 4.39527 5.88491 4.26026 6.23368 4.21626C6.31556 4.20796 6.39363 4.17822 6.45968 4.13017C6.52573 4.08212 6.5773 4.01754 6.60896 3.94323C6.65915 3.82479 6.69746 3.70188 6.72338 3.57621C6.73711 3.53145 6.76457 3.47326 6.76457 3.43298C7.35618 3.5215 7.92852 3.70605 8.45794 3.97904L8.69135 3.07044C8.04974 2.74365 7.34482 2.553 6.6227 2.51096C6.41328 2.5384 6.22002 2.63585 6.0757 2.78678C5.93139 2.9377 5.84491 3.13281 5.83093 3.33899C5.38106 3.44372 4.96342 3.65241 4.61304 3.94757C4.26266 4.24273 3.98976 4.61574 3.8172 5.03534C3.47853 5.80966 3.65244 7.09871 3.74855 7.64028C3.54817 7.87206 3.43652 8.16482 3.43276 8.46832C3.43276 9.07256 3.74398 9.38139 4.20164 9.85136C4.28367 10.4822 4.60158 11.0609 5.09409 11.4761V12.1698Z" fill="#D12421"/>
<defs>
<clipPath id="clip0">
<rect width="22" height="19" fill="white" transform="translate(3)"/>
</clipPath>
</defs>
</svg>
