<svg width="22" height="30" viewBox="0 0 22 30" fill="none" xmlns="http://www.w3.org/2000/svg">
<g clip-path="url(#clip0)">
<path d="M21.4453 29.9999H0.554715C0.407596 29.9999 0.266502 29.9418 0.162472 29.8384C0.058443 29.735 0 29.5947 0 29.4485V9.86387C0 9.71764 0.058443 9.57739 0.162472 9.47399C0.266502 9.37059 0.407596 9.3125 0.554715 9.3125H6.27383C6.42095 9.3125 6.56204 9.37059 6.66607 9.47399C6.7701 9.57739 6.82854 9.71764 6.82854 9.86387C6.82854 10.0101 6.7701 10.1503 6.66607 10.2537C6.56204 10.3571 6.42095 10.4152 6.27383 10.4152H1.10943V28.8971H20.8906V10.4152H15.8538C15.7066 10.4152 15.5655 10.3571 15.4615 10.2537C15.3575 10.1503 15.299 10.0101 15.299 9.86387C15.299 9.71764 15.3575 9.57739 15.4615 9.47399C15.5655 9.37059 15.7066 9.3125 15.8538 9.3125H21.4453C21.5924 9.3125 21.7335 9.37059 21.8375 9.47399C21.9416 9.57739 22 9.71764 22 9.86387V29.4485C22 29.5947 21.9416 29.735 21.8375 29.8384C21.7335 29.9418 21.5924 29.9999 21.4453 29.9999Z" fill="white"/>
<path d="M16.5416 16.1496L11.3938 21.2443H11.3661V21.2718C11.2622 21.3745 11.1216 21.4322 10.975 21.4322C10.8285 21.4322 10.6879 21.3745 10.584 21.2718L5.41957 16.1882C5.35123 16.0809 5.32223 15.9535 5.33745 15.8275C5.35267 15.7015 5.41119 15.5845 5.50311 15.4964C5.59504 15.4082 5.71475 15.3543 5.84202 15.3438C5.9693 15.3332 6.09635 15.3666 6.20171 15.4383L10.4453 19.6563V0.551369C10.4453 0.405137 10.5037 0.264894 10.6078 0.161492C10.7118 0.0580905 10.8529 0 11 0C11.1471 0 11.2882 0.0580905 11.3922 0.161492C11.4963 0.264894 11.5547 0.405137 11.5547 0.551369V19.5295L15.7595 15.3667C15.8634 15.264 16.004 15.2063 16.1505 15.2063C16.2971 15.2063 16.4377 15.264 16.5416 15.3667C16.5936 15.4179 16.6349 15.4789 16.663 15.5461C16.6912 15.6133 16.7057 15.6853 16.7057 15.7581C16.7057 15.8309 16.6912 15.903 16.663 15.9702C16.6349 16.0374 16.5936 16.0983 16.5416 16.1496Z" fill="white"/>
</g>
<defs>
<clipPath id="clip0">
<rect width="22" height="30" fill="white"/>
</clipPath>
</defs>
</svg>
