<svg width="21" height="29" viewBox="0 0 21 29" fill="none" xmlns="http://www.w3.org/2000/svg">
<path d="M20.4705 29.0002H0.529501C0.389068 29.0002 0.254388 28.9441 0.155087 28.8441C0.0557865 28.7442 0 28.6086 0 28.4673V9.53543C0 9.39407 0.0557865 9.25851 0.155087 9.15855C0.254388 9.0586 0.389068 9.00244 0.529501 9.00244H5.98865C6.12909 9.00244 6.26377 9.0586 6.36307 9.15855C6.46237 9.25851 6.51815 9.39407 6.51815 9.53543C6.51815 9.67679 6.46237 9.81236 6.36307 9.91231C6.26377 10.0123 6.12909 10.0684 5.98865 10.0684H1.059V27.9343H19.941V10.0684H15.1331C14.9927 10.0684 14.858 10.0123 14.7587 9.91231C14.6594 9.81236 14.6036 9.67679 14.6036 9.53543C14.6036 9.39407 14.6594 9.25851 14.7587 9.15855C14.858 9.0586 14.9927 9.00244 15.1331 9.00244H20.4705C20.6109 9.00244 20.7456 9.0586 20.8449 9.15855C20.9442 9.25851 21 9.39407 21 9.53543V28.4673C21 28.6086 20.9442 28.7442 20.8449 28.8441C20.7456 28.9441 20.6109 29.0002 20.4705 29.0002Z" fill="#D12421"/>
<path d="M15.7895 15.6113L10.8757 20.5361H10.8492V20.5628C10.75 20.662 10.6158 20.7178 10.4759 20.7178C10.336 20.7178 10.2018 20.662 10.1026 20.5628L5.17298 15.6486C5.10775 15.5449 5.08007 15.4218 5.09459 15.2999C5.10912 15.1781 5.16498 15.065 5.25273 14.9798C5.34048 14.8946 5.45474 14.8425 5.57623 14.8323C5.69772 14.8221 5.819 14.8544 5.91957 14.9237L9.97026 19.0011V0.53299C9.97026 0.391632 10.026 0.256064 10.1253 0.156109C10.2246 0.0561542 10.3593 0 10.4998 0C10.6402 0 10.7749 0.0561542 10.8742 0.156109C10.9735 0.256064 11.0293 0.391632 11.0293 0.53299V18.8785L15.0429 14.8544C15.1421 14.7552 15.2763 14.6994 15.4162 14.6994C15.5561 14.6994 15.6903 14.7552 15.7895 14.8544C15.8391 14.904 15.8785 14.9629 15.9054 15.0279C15.9323 15.0928 15.9461 15.1625 15.9461 15.2329C15.9461 15.3032 15.9323 15.3729 15.9054 15.4378C15.8785 15.5028 15.8391 15.5617 15.7895 15.6113Z" fill="#D12421"/>
</svg>
