<svg width="28" height="15" viewBox="0 0 28 15" fill="none" xmlns="http://www.w3.org/2000/svg">
<path d="M0.503792 7.47113L0.503783 7.47112C0.501334 7.47418 0.5 7.47798 0.5 7.4819C0.5 7.48571 0.501263 7.48941 0.503585 7.49242C0.615376 7.63074 2.06085 9.38816 4.41169 11.1098C6.77413 12.8398 10.0046 14.5 13.6859 14.5C17.3672 14.5 20.5976 12.8398 22.9601 11.1098C25.3177 9.38321 26.7647 7.62064 26.8691 7.49127C26.8691 7.49123 26.8692 7.4912 26.8692 7.49116L0.503792 7.47113ZM0.503792 7.47113L0.505911 7.46844M0.503792 7.47113L0.505911 7.46844M0.505911 7.46844C0.604552 7.3435 2.02847 5.5907 4.39327 3.87332C6.76044 2.15422 10.0294 0.5 13.8307 0.5C17.6301 0.5 20.8303 2.15533 23.1266 3.8742M0.505911 7.46844L23.1266 3.8742M23.1266 3.8742C25.421 5.59172 26.7749 7.34471 26.8695 7.47005L23.1266 3.8742Z" stroke="#D12421"/>
<path d="M13.6554 8.58553C15.238 8.58553 16.521 7.30259 16.521 5.72001C16.521 4.13743 15.238 2.85449 13.6554 2.85449C12.0729 2.85449 10.7899 4.13743 10.7899 5.72001C10.7899 7.30259 12.0729 8.58553 13.6554 8.58553Z" fill="#D12421"/>
</svg>
