<svg width="22" height="22" viewBox="0 0 22 22" fill="none" xmlns="http://www.w3.org/2000/svg">
<path d="M21.5421 22H0.457856C0.336425 22 0.219968 21.9512 0.134103 21.8645C0.0482383 21.7777 0 21.66 0 21.5372V0.462768C0 0.340034 0.0482383 0.222328 0.134103 0.135542C0.219968 0.0487558 0.336425 0 0.457856 0C0.579287 0 0.695745 0.0487558 0.78161 0.135542C0.867475 0.222328 0.915713 0.340034 0.915713 0.462768V21.0745H21.5421C21.6636 21.0745 21.78 21.1232 21.8659 21.21C21.9518 21.2968 22 21.4145 22 21.5372C22 21.66 21.9518 21.7777 21.8659 21.8645C21.78 21.9512 21.6636 22 21.5421 22Z" fill="#D12421"/>
<path d="M2.28927 15.0169C2.2287 15.0166 2.16877 15.0042 2.11297 14.9804C2.05717 14.9566 2.0066 14.9218 1.9642 14.878C1.87892 14.7913 1.83105 14.6741 1.83105 14.5518C1.83105 14.4295 1.87892 14.3123 1.9642 14.2255L9.31737 6.78886C9.40316 6.70267 9.5192 6.65429 9.64016 6.65429C9.76112 6.65429 9.87716 6.70267 9.96295 6.78886L14.7292 11.6017L20.7317 5.55327C20.8179 5.46613 20.9349 5.41718 21.0568 5.41718C21.1787 5.41718 21.2957 5.46613 21.3819 5.55327C21.4681 5.64041 21.5165 5.7586 21.5165 5.88184C21.5165 6.00507 21.4681 6.12326 21.3819 6.2104L15.0543 12.5827C15.0117 12.6261 14.9611 12.6605 14.9053 12.684C14.8495 12.7075 14.7897 12.7196 14.7292 12.7196C14.6688 12.7196 14.6089 12.7075 14.5532 12.684C14.4974 12.6605 14.4467 12.6261 14.4042 12.5827L9.64245 7.76993L2.60519 14.878C2.52178 14.9641 2.40845 15.0139 2.28927 15.0169Z" fill="#D12421"/>
</svg>
