<svg width="23" height="23" viewBox="0 0 23 23" fill="none" xmlns="http://www.w3.org/2000/svg">
<path d="M22.9999 0.495272V9.41018C22.9999 9.54153 22.9456 9.66751 22.849 9.76039C22.7523 9.85327 22.6213 9.90545 22.4846 9.90545C22.3479 9.90545 22.2168 9.85327 22.1202 9.76039C22.0235 9.66751 21.9692 9.54153 21.9692 9.41018V1.69383L2.60244 20.3062C2.53711 20.3726 2.45287 20.4191 2.36022 20.4399L1.76242 21.0095H9.41534C9.55202 21.0095 9.6831 21.0616 9.77975 21.1545C9.87639 21.2474 9.93069 21.3734 9.93069 21.5047C9.93069 21.6361 9.87639 21.7621 9.77975 21.8549C9.6831 21.9478 9.55202 22 9.41534 22H0.515274C0.470951 22.0075 0.425607 22.0075 0.381284 22C0.338882 21.9908 0.298668 21.974 0.262754 21.9505C0.23957 21.9414 0.218534 21.9279 0.200912 21.9109C0.179645 21.897 0.160554 21.8804 0.144223 21.8613C0.0967674 21.8141 0.0595701 21.7582 0.0347972 21.697C0.0100242 21.6357 -0.0018296 21.5704 -7.41244e-05 21.5047V12.5898C-7.41244e-05 12.4585 0.0542214 12.3325 0.150868 12.2396C0.247515 12.1467 0.378595 12.0946 0.515274 12.0946C0.651953 12.0946 0.783034 12.1467 0.879681 12.2396C0.976327 12.3325 1.03062 12.4585 1.03062 12.5898V20.3062L20.3974 1.69878C20.4644 1.63544 20.5482 1.59091 20.6396 1.57001L21.2426 0.990545H13.5845C13.4478 0.990545 13.3168 0.938365 13.2201 0.845483C13.1235 0.752601 13.0692 0.626627 13.0692 0.495272C13.0692 0.363918 13.1235 0.237944 13.2201 0.145062C13.3168 0.0521803 13.4478 0 13.5845 0L22.5155 0C22.5704 0.00591933 22.6242 0.0192581 22.6753 0.0396218C22.7278 0.059874 22.7766 0.088321 22.8196 0.123818C22.8346 0.135748 22.8484 0.149014 22.8608 0.16344C22.9029 0.208438 22.9361 0.260476 22.9587 0.316974C22.9609 0.341693 22.9609 0.366547 22.9587 0.391265C22.9751 0.424887 22.9889 0.459655 22.9999 0.495272Z" fill="#D12421"/>
</svg>
