<svg width="23" height="24" viewBox="0 0 23 24" fill="none" xmlns="http://www.w3.org/2000/svg">
<path d="M15.9407 15.4362C17.5272 13.681 18.3856 11.3782 18.3386 9.00295C18.2915 6.62773 17.3427 4.36136 15.688 2.67147C14.0332 0.981575 11.7987 -0.002879 9.44556 -0.0787607C7.09242 -0.154642 4.80019 0.683839 3.04186 2.26367C1.28353 3.84349 0.193277 6.04412 -0.00394081 8.41146C-0.201159 10.7788 0.509711 13.1322 1.98198 14.9861C3.45426 16.8399 5.57559 18.0528 7.90826 18.3744C10.2409 18.696 12.6069 18.1018 14.5181 16.7144L21.5725 23.9999L23 22.5595L15.9407 15.4362ZM9.15905 17.4911C7.54123 17.4911 5.95974 17.007 4.61458 16.1C3.26941 15.1931 2.22098 13.904 1.60187 12.3958C0.982754 10.8875 0.820766 9.22793 1.13639 7.62682C1.45201 6.0257 2.23106 4.55498 3.37503 3.40064C4.519 2.24629 5.97651 1.46018 7.56324 1.14169C9.14998 0.823213 10.7947 0.986669 12.2893 1.61139C13.784 2.23612 15.0615 3.29405 15.9603 4.65142C16.8591 6.00878 17.3389 7.60461 17.3389 9.23709C17.335 11.425 16.472 13.5222 14.9388 15.0692C13.4056 16.6163 11.3273 17.4872 9.15905 17.4911Z" fill="#D12421"/>
</svg>
