<svg width="20" height="23" viewBox="0 0 20 23" fill="none" xmlns="http://www.w3.org/2000/svg">
<g clip-path="url(#clip0)">
<path d="M18.2737 16.7952C18.146 16.6466 18.0316 16.507 17.9391 16.39C17.8467 16.2729 17.7718 16.1874 17.6926 16.0928C17.2524 15.557 16.9354 15.1922 16.9354 13.6118C16.9354 13.3911 16.9574 13.0579 16.9838 12.6752C17.1335 10.4959 17.4241 6.43892 15.1656 3.97142C14.3294 3.07433 13.2421 2.46404 12.0532 2.22435C11.9299 1.30129 11.4016 0 9.99724 0C8.59289 0 8.069 1.30129 7.94574 2.22435C6.76031 2.46689 5.67666 3.07689 4.84206 3.97142C2.58364 6.43892 2.86099 10.4959 3.01067 12.6752C3.03709 13.0579 3.08111 13.3911 3.08111 13.6118C3.08111 15.2013 2.77735 15.557 2.3239 16.0928C2.24466 16.1874 2.16101 16.2819 2.07737 16.39C1.99372 16.498 1.87046 16.6466 1.74279 16.7952C0.994382 17.6733 -0.000554935 18.8755 -0.000554935 19.8121C-0.0147439 19.9996 0.0131836 20.188 0.0810925 20.3628C0.149001 20.5376 0.255093 20.6942 0.391257 20.8207C0.574281 20.9682 0.800971 21.0476 1.034 21.0458H1.15727H7.78285C7.99856 21.8833 8.63691 23.018 9.98404 23.018C11.3312 23.018 11.9871 21.8833 12.1852 21.0458H18.8416H18.9649C19.1979 21.0476 19.4246 20.9682 19.6076 20.8207C19.7438 20.6942 19.8499 20.5376 19.9178 20.3628C19.9857 20.188 20.0136 19.9996 19.9994 19.8121C19.9994 18.8755 19.0001 17.6733 18.2737 16.7952ZM9.99724 0.900548C10.7236 0.900548 11.0054 1.56695 11.1287 2.06676C10.3781 1.98272 9.6208 1.98272 8.87024 2.06676C8.9847 1.56695 9.27525 0.900548 9.99724 0.900548ZM9.99724 22.0994C9.69827 22.0878 9.41114 21.9769 9.17922 21.7836C8.94731 21.5902 8.78322 21.3249 8.71175 21.0278H11.2871C11.2148 21.3253 11.0499 21.5907 10.8172 21.784C10.5846 21.9773 10.2968 22.088 9.99724 22.0994ZM19.0485 20.1137C19.0183 20.1224 18.9863 20.1224 18.9561 20.1137H9.99724H1.04281C1.04281 20.1137 0.97237 20.1137 0.950359 20.1137C0.892688 20.0249 0.867727 19.918 0.87992 19.8121C0.87992 19.2132 1.86605 18.011 2.39434 17.3896L2.74213 16.9663L2.97105 16.6917C3.46852 16.0973 3.96158 15.539 3.96158 13.6118C3.96158 13.3596 3.93517 13.0309 3.90876 12.6122C3.76788 10.5679 3.50814 6.75861 5.49361 4.58829C6.51056 3.47161 8.03378 2.90427 10.0149 2.90427C11.9959 2.90427 13.5368 3.47161 14.5405 4.58829C16.5084 6.75411 16.2486 10.5679 16.1077 12.6077C16.0769 13.0264 16.0549 13.3551 16.0549 13.6073C16.0549 15.5345 16.5304 16.0928 17.0278 16.6782L17.2568 16.9528L17.6001 17.3761C18.1328 18.011 19.119 19.1772 19.119 19.7985C19.1345 19.9089 19.1094 20.0212 19.0485 20.1137Z" fill="#D12421"/>
</g>
<defs>
<clipPath id="clip0">
<rect width="20" height="23" fill="white"/>
</clipPath>
</defs>
</svg>
