<svg width="26" height="25" viewBox="0 0 26 25" fill="none" xmlns="http://www.w3.org/2000/svg">
<path d="M25.4589 25H0.541103C0.397594 25 0.259962 24.9446 0.158485 24.846C0.0570089 24.7474 0 24.6136 0 24.4741V0.525873C0 0.386403 0.0570089 0.252645 0.158485 0.154025C0.259962 0.0554043 0.397594 0 0.541103 0C0.684612 0 0.822244 0.0554043 0.923721 0.154025C1.0252 0.252645 1.08221 0.386403 1.08221 0.525873V23.9483H25.4589C25.6024 23.9483 25.74 24.0037 25.8415 24.1023C25.943 24.2009 26 24.3347 26 24.4741C26 24.6136 25.943 24.7474 25.8415 24.846C25.74 24.9446 25.6024 25 25.4589 25Z" fill="#D12421"/>
<path d="M2.70559 17.0645C2.634 17.0642 2.56318 17.0501 2.49723 17.0231C2.43129 16.996 2.37153 16.9564 2.32141 16.9068C2.22063 16.8082 2.16406 16.6749 2.16406 16.536C2.16406 16.3971 2.22063 16.2638 2.32141 16.1653L11.0115 7.7145C11.1129 7.61655 11.2501 7.56158 11.393 7.56158C11.536 7.56158 11.6731 7.61655 11.7745 7.7145L17.4074 13.1836L24.5012 6.31042C24.6031 6.21139 24.7413 6.15576 24.8854 6.15576C25.0295 6.15576 25.1677 6.21139 25.2696 6.31042C25.3715 6.40944 25.4287 6.54375 25.4287 6.68379C25.4287 6.82383 25.3715 6.95813 25.2696 7.05716L17.7915 14.2984C17.7412 14.3477 17.6814 14.3868 17.6155 14.4135C17.5495 14.4402 17.4788 14.454 17.4074 14.454C17.3359 14.454 17.2652 14.4402 17.1993 14.4135C17.1333 14.3868 17.0735 14.3477 17.0232 14.2984L11.3957 8.82935L3.07896 16.9068C2.98038 17.0046 2.84643 17.0612 2.70559 17.0645Z" fill="#D12421"/>
</svg>
