<svg width="21" height="27" viewBox="0 0 21 27" fill="none" xmlns="http://www.w3.org/2000/svg">
<path d="M20.5015 10.2306H17.1419V6.76006C17.137 6.68964 16.9824 0 10.4377 0C8.47377 0 6.90363 0.588487 5.76216 1.7554C3.878 3.68685 3.89295 6.48845 3.89793 6.59911V10.2306H0.498457C0.366258 10.2306 0.239474 10.2836 0.145995 10.3779C0.0525159 10.4723 0 10.6002 0 10.7336L0 26.497C0 26.6304 0.0525159 26.7584 0.145995 26.8527C0.239474 26.947 0.366258 27 0.498457 27H20.5015C20.6337 27 20.7605 26.947 20.854 26.8527C20.9475 26.7584 21 26.6304 21 26.497V10.7336C21 10.6002 20.9475 10.4723 20.854 10.3779C20.7605 10.2836 20.6337 10.2306 20.5015 10.2306ZM4.89485 6.58905C4.89485 6.50354 4.89485 4.07414 6.47994 2.45455C7.42203 1.50894 8.75291 1.00596 10.4377 1.00596C15.9905 1.00596 16.14 6.53875 16.145 6.76509V10.2306H4.89485V6.58905ZM20.0031 25.994H0.996914V11.2366H20.0031V25.994Z" fill="#D12421"/>
<path d="M12.1923 17.4836C12.193 17.7336 12.1393 17.9807 12.0351 18.2076C11.9309 18.4344 11.7787 18.6354 11.5891 18.7964V20.4311C11.5891 20.7286 11.472 21.0139 11.2636 21.2242C11.0551 21.4346 10.7724 21.5527 10.4776 21.5527C10.1828 21.5527 9.90006 21.4346 9.6916 21.2242C9.48314 21.0139 9.36603 20.7286 9.36603 20.4311V18.7813C9.15131 18.592 8.98707 18.3514 8.88833 18.0815C8.78959 17.8117 8.75951 17.5211 8.80085 17.2364C8.84219 16.9518 8.95362 16.6821 9.12494 16.4521C9.29627 16.2222 9.52201 16.0393 9.78152 15.9201C10.041 15.8009 10.326 15.7494 10.6104 15.7701C10.8948 15.7908 11.1694 15.8832 11.4093 16.0387C11.6491 16.1943 11.8465 16.4081 11.9833 16.6605C12.1201 16.9129 12.1919 17.1959 12.1923 17.4836Z" fill="#D12421"/>
</svg>
