<svg width="25" height="28" viewBox="0 0 25 28" fill="none" xmlns="http://www.w3.org/2000/svg">
<path d="M23.099 12.0312H6.01943V4.375C6.01943 3.31885 6.87683 2.46094 7.93235 2.46094H16.4038C17.4594 2.46094 18.3168 3.31885 18.3168 4.375V6.69922C18.3168 6.84961 18.4397 6.97266 18.59 6.97266H20.5029C20.6532 6.97266 20.7762 6.84961 20.7762 6.69922V4.375C20.7762 1.9585 18.8189 0 16.4038 0H7.93235C5.51729 0 3.55997 1.9585 3.55997 4.375V12.0312H1.23714C0.63252 12.0312 0.144043 12.52 0.144043 13.125V26.25C0.144043 26.855 0.63252 27.3438 1.23714 27.3438H23.099C23.7037 27.3438 24.1921 26.855 24.1921 26.25V13.125C24.1921 12.52 23.7037 12.0312 23.099 12.0312ZM21.7327 24.8828H2.60351V14.4922H21.7327V24.8828ZM11.2116 20.1318V21.9434C11.2116 22.0938 11.3346 22.2168 11.4849 22.2168H12.8513C13.0016 22.2168 13.1245 22.0938 13.1245 21.9434V20.1318C13.4065 19.9293 13.617 19.6424 13.7257 19.3125C13.8343 18.9827 13.8356 18.6268 13.7292 18.2962C13.6229 17.9655 13.4145 17.6772 13.1339 17.4726C12.8534 17.2681 12.5152 17.1579 12.1681 17.1579C11.821 17.1579 11.4828 17.2681 11.2023 17.4726C10.9217 17.6772 10.7133 17.9655 10.6069 18.2962C10.5006 18.6268 10.5019 18.9827 10.6105 19.3125C10.7192 19.6424 10.9297 19.9293 11.2116 20.1318Z" fill="#D12421"/>
</svg>
