<svg width="25" height="28" viewBox="0 0 25 28" fill="none" xmlns="http://www.w3.org/2000/svg">
<path d="M22.9568 12.0296H20.6338V4.3744C20.6338 1.95823 18.6763 0 16.2611 0H7.78892C5.37367 0 3.41619 1.95823 3.41619 4.3744V12.0296H1.09318C0.488516 12.0296 0 12.5183 0 13.1232V26.2464C0 26.8513 0.488516 27.34 1.09318 27.34H22.9568C23.5615 27.34 24.05 26.8513 24.05 26.2464V13.1232C24.05 12.5183 23.5615 12.0296 22.9568 12.0296ZM12.9815 20.1291V21.9404C12.9815 22.0907 12.8586 22.2138 12.7082 22.2138H11.3418C11.1914 22.2138 11.0685 22.0907 11.0685 21.9404V20.1291C10.7865 19.9265 10.576 19.6397 10.4673 19.3099C10.3586 18.9801 10.3574 18.6242 10.4637 18.2937C10.5701 17.9631 10.7785 17.6748 11.0591 17.4702C11.3397 17.2657 11.6779 17.1555 12.025 17.1555C12.3721 17.1555 12.7103 17.2657 12.9909 17.4702C13.2715 17.6748 13.4799 17.9631 13.5863 18.2937C13.6926 18.6242 13.6914 18.9801 13.5827 19.3099C13.474 19.6397 13.2635 19.9265 12.9815 20.1291ZM18.1741 12.0296H5.87585V4.3744C5.87585 3.31839 6.73332 2.4606 7.78892 2.4606H16.2611C17.3167 2.4606 18.1741 3.31839 18.1741 4.3744V12.0296Z" fill="#D12421"/>
</svg>
