<svg width="25" height="25" viewBox="0 0 25 25" fill="none" xmlns="http://www.w3.org/2000/svg">
<path d="M22.3565 0C21.6791 0 21.0039 0.265365 20.4879 0.781234L20.0462 1.2228L23.7835 4.95914C23.7814 4.96126 24.2252 4.51757 24.2252 4.51757C25.2593 3.48371 25.2572 1.81297 24.2252 0.781234C23.7071 0.265365 23.0339 0 22.3565 0ZM19.2138 2.19085C19.0906 2.20783 18.976 2.2694 18.891 2.36068L1.25762 20.0064C1.18755 20.0701 1.13446 20.1529 1.10473 20.2441L0.0175083 24.3201C-0.0313319 24.507 0.0238789 24.7044 0.159782 24.8403C0.295684 24.9761 0.493168 25.0313 0.680034 24.9825L4.75712 23.8956C4.84843 23.8658 4.93124 23.8128 4.99495 23.7427L22.6453 6.114C22.8619 5.90383 22.864 5.5578 22.6538 5.34126C22.4436 5.12472 22.0975 5.1226 21.8809 5.33277L4.33242 22.8766L2.124 20.6687L19.6725 3.12493C19.836 2.96784 19.8848 2.7237 19.7935 2.51566C19.7022 2.30761 19.492 2.17811 19.2647 2.19085C19.2478 2.19085 19.2308 2.19085 19.2138 2.19085Z" fill="#D12421"/>
</svg>
