<svg width="19" height="21" viewBox="0 0 19 21" fill="none" xmlns="http://www.w3.org/2000/svg">
<path d="M3.19736 20.5C3.09263 20.4997 2.99019 20.4693 2.90222 20.4125C2.78565 20.3353 2.70311 20.2163 2.6716 20.0801C2.64008 19.9438 2.66198 19.8007 2.73278 19.6801L15.085 0.2554C15.1239 0.193684 15.1747 0.140366 15.2345 0.0985866C15.2942 0.0568075 15.3618 0.0274123 15.4331 0.0121323C15.5044 -0.00314765 15.578 -0.00400331 15.6497 0.00961572C15.7213 0.0232348 15.7895 0.0510531 15.8502 0.0914321C15.9109 0.129826 15.9634 0.179792 16.0047 0.238478C16.0461 0.297164 16.0754 0.36342 16.0912 0.433461C16.1069 0.503502 16.1087 0.575957 16.0964 0.646687C16.0841 0.717417 16.0581 0.785037 16.0196 0.845684L3.65647 20.2267C3.60973 20.3077 3.54297 20.3754 3.46258 20.4232C3.3822 20.4711 3.29088 20.4975 3.19736 20.5Z" fill="#D12421"/>
<path d="M3.27936 10.0716C1.44292 10.0716 0 7.96183 0 5.27276C0 2.58369 1.44292 0.473969 3.27936 0.473969C5.1158 0.473969 6.55871 2.58369 6.55871 5.27276C6.55871 7.96183 5.12126 10.0716 3.27936 10.0716ZM3.27936 1.56709C2.09332 1.56709 1.09312 3.28328 1.09312 5.27276C1.09312 7.26224 2.09332 8.97843 3.27936 8.97843C4.46539 8.97843 5.46559 7.2841 5.46559 5.27276C5.46559 3.26142 4.47086 1.56709 3.27936 1.56709Z" fill="#D12421"/>
<path d="M15.5496 19.9589C13.7077 19.9589 12.2703 17.8491 12.2703 15.1601C12.2703 12.471 13.7132 10.3613 15.5496 10.3613C17.3861 10.3613 18.829 12.4655 18.829 15.1601C18.829 17.8546 17.3861 19.9589 15.5496 19.9589ZM15.5496 11.4544C14.3636 11.4544 13.3634 13.1487 13.3634 15.1601C13.3634 17.1714 14.3691 18.8657 15.5496 18.8657C16.7302 18.8657 17.7359 17.1659 17.7359 15.1601C17.7359 13.1542 16.7357 11.4817 15.5496 11.4817V11.4544Z" fill="#D12421"/>
</svg>
