<svg width="24" height="25" viewBox="0 0 24 25" fill="none" xmlns="http://www.w3.org/2000/svg">
<g clip-path="url(#clip0)">
<path d="M12 24.9999C6.18222 24.9999 0 23.5244 0 20.7904C0 19.018 2.66667 17.5956 7.11111 16.9266C7.22899 16.9089 7.34906 16.9387 7.44491 17.0093C7.54076 17.08 7.60454 17.1857 7.62222 17.3032C7.6399 17.4207 7.61003 17.5404 7.53919 17.636C7.46834 17.7316 7.36232 17.7951 7.24444 17.8128C2.88 18.4597 0.888889 19.8112 0.888889 20.7904C0.888889 22.3635 5.45333 24.1137 12 24.1137C18.5467 24.1137 23.1111 22.3413 23.1111 20.7904C23.1111 19.8245 21.1644 18.4863 16.8889 17.8261C16.8305 17.8173 16.7745 17.7972 16.7239 17.7669C16.6733 17.7366 16.6292 17.6966 16.5941 17.6493C16.5591 17.602 16.5337 17.5482 16.5194 17.4911C16.5052 17.434 16.5024 17.3747 16.5111 17.3165C16.5199 17.2583 16.54 17.2024 16.5705 17.152C16.6009 17.1016 16.641 17.0576 16.6884 17.0226C16.7359 16.9877 16.7898 16.9624 16.8471 16.9481C16.9043 16.9339 16.9639 16.9311 17.0222 16.9399C21.3911 17.6267 24 19.0535 24 20.7904C24 23.5244 17.8178 24.9999 12 24.9999Z" fill="#D12421"/>
<path d="M12 10.8206C11.3408 10.8206 10.6963 10.6257 10.1481 10.2605C9.59996 9.89532 9.17272 9.37629 8.92042 8.76904C8.66813 8.16179 8.60212 7.49358 8.73074 6.84893C8.85935 6.20427 9.17682 5.61212 9.643 5.14735C10.1092 4.68258 10.7031 4.36607 11.3497 4.23784C11.9963 4.10961 12.6665 4.17542 13.2756 4.42695C13.8847 4.67848 14.4053 5.10444 14.7716 5.65095C15.1379 6.19746 15.3334 6.83999 15.3334 7.49727C15.3334 8.37866 14.9822 9.22395 14.357 9.84719C13.7319 10.4704 12.8841 10.8206 12 10.8206ZM12 5.06019C11.5166 5.06019 11.0439 5.20312 10.642 5.47091C10.24 5.7387 9.92666 6.11932 9.74165 6.56464C9.55664 7.00996 9.50823 7.49997 9.60255 7.97272C9.69687 8.44547 9.92968 8.87971 10.2715 9.22055C10.6134 9.56138 11.049 9.79349 11.5231 9.88752C11.9973 9.98156 12.4888 9.93329 12.9355 9.74884C13.3821 9.56438 13.7639 9.25201 14.0325 8.85124C14.3011 8.45046 14.4445 7.97928 14.4445 7.49727C14.4433 6.85128 14.1854 6.23208 13.7272 5.77529C13.269 5.3185 12.648 5.06136 12 5.06019Z" fill="#D12421"/>
<path d="M12 21.7874C11.9415 21.7878 11.8835 21.7766 11.8294 21.7546C11.7752 21.7325 11.726 21.7 11.6845 21.6589C11.4134 21.3842 4.98224 14.906 4.98224 7.47958C4.98224 5.06022 5.67113 3.17259 7.04002 1.861C8.40308 0.646279 10.1719 -0.0173915 12 -4.04981e-05C12.0889 -4.04981e-05 15.0311 -0.101955 17.0756 1.85657C18.3156 3.04409 18.9467 4.71903 18.9467 6.82821C18.9467 13.559 12.5956 21.2956 12.3245 21.6235C12.2851 21.6707 12.2364 21.7093 12.1813 21.7368C12.1262 21.7642 12.066 21.78 12.0045 21.783L12 21.7874ZM11.9556 0.88617C11.5511 0.88617 9.28891 0.957067 7.64891 2.52566C6.46668 3.66001 5.87113 5.33495 5.87113 7.4973C5.87113 13.5811 10.6356 19.2086 11.9689 20.6664C13.2578 19.0047 18.0756 12.4069 18.0756 6.83264C18.0756 4.97603 17.5378 3.51822 16.4845 2.50794C14.72 0.810842 12.0445 0.88617 12 0.88617H11.9556Z" fill="#D12421"/>
</g>
<defs>
<clipPath id="clip0">
<rect width="24" height="25" fill="white"/>
</clipPath>
</defs>
</svg>
