<svg width="26" height="24" viewBox="0 0 26 24" fill="none" xmlns="http://www.w3.org/2000/svg">
<g clip-path="url(#clip0)">
<path d="M3.39435 21.5544C3.90359 21.5544 4.31641 21.1366 4.31641 20.6213C4.31641 20.1059 3.90359 19.6881 3.39435 19.6881C2.88511 19.6881 2.47229 20.1059 2.47229 20.6213C2.47229 21.1366 2.88511 21.5544 3.39435 21.5544Z" fill="#D12421"/>
<path d="M22.7067 17.3348C22.6477 17.3295 22.5884 17.3295 22.5294 17.3348L19.0945 1.10746C19.0387 0.722922 18.6385 0 17.5239 0H14.3119C14.1776 0 14.0487 0.0540176 13.9537 0.15017C13.8587 0.246322 13.8053 0.376732 13.8053 0.512711C13.8053 0.64869 13.8587 0.7791 13.9537 0.875252C14.0487 0.971404 14.1776 1.02542 14.3119 1.02542H17.5239C18.0052 1.02542 18.0812 1.23563 18.0964 1.2869L20.8423 14.238L17.7317 18.4217H8.72892C8.2223 17.5142 6.5251 14.9096 3.29283 14.9096C2.27372 14.8645 1.27633 15.2168 0.506397 15.894C0.446383 15.9371 0.396358 15.9929 0.359801 16.0575C0.323243 16.1221 0.301029 16.194 0.294704 16.2682C0.288379 16.3424 0.298094 16.4171 0.323174 16.487C0.348254 16.557 0.388097 16.6207 0.439934 16.6735C0.49177 16.7263 0.554355 16.7671 0.623338 16.793C0.692321 16.8189 0.766047 16.8293 0.83939 16.8234C0.912732 16.8175 0.983932 16.7955 1.04804 16.759C1.11214 16.7225 1.16762 16.6723 1.21061 16.6118C1.79768 16.1326 2.53983 15.8914 3.29283 15.9351C3.94897 15.9375 4.59773 16.0752 5.19959 16.3396C5.80146 16.6041 6.34381 16.9898 6.79361 17.4732C7.07 17.7583 7.31934 18.069 7.53835 18.4012H5.71957C5.23466 17.8637 4.58924 17.5017 3.88189 17.3704C3.17453 17.239 2.44415 17.3457 1.80231 17.674C1.16047 18.0022 0.642466 18.5341 0.327426 19.1884C0.0123858 19.8426 -0.0823664 20.5832 0.0576436 21.2971C0.197654 22.011 0.564728 22.6588 1.10279 23.1417C1.64085 23.6246 2.32032 23.9159 3.0374 23.9713C3.75447 24.0266 4.46973 23.8428 5.0739 23.4481C5.67807 23.0533 6.13794 22.4692 6.38325 21.7851H16.5157L21.121 15.5505L21.5415 17.5347C20.7767 17.8317 20.1492 18.4073 19.7823 19.1485C19.4154 19.8897 19.3355 20.7429 19.5584 21.5407C19.7814 22.3384 20.2909 23.023 20.987 23.4599C21.6832 23.8969 22.5156 24.0547 23.3208 23.9024C24.126 23.75 24.8459 23.2985 25.339 22.6365C25.8321 21.9746 26.0628 21.1499 25.9859 20.3246C25.909 19.4992 25.5299 18.7328 24.9232 18.1758C24.3165 17.6188 23.5259 17.3115 22.7067 17.3142V17.3348ZM3.29283 22.9746C2.84193 22.9746 2.40115 22.8393 2.02624 22.5857C1.65133 22.3322 1.35912 21.9719 1.18656 21.5503C1.01401 21.1287 0.968861 20.6648 1.05683 20.2173C1.14479 19.7697 1.36193 19.3586 1.68076 19.0359C1.9996 18.7133 2.40583 18.4935 2.84807 18.4045C3.29031 18.3155 3.7487 18.3612 4.16528 18.5358C4.58186 18.7104 4.93792 19.0061 5.18843 19.3856C5.43894 19.765 5.57265 20.2111 5.57265 20.6674C5.57131 21.2789 5.33069 21.8649 4.90343 22.2973C4.47617 22.7297 3.89707 22.9732 3.29283 22.9746ZM16.0091 20.7802H6.5859C6.58842 20.7426 6.58842 20.7049 6.5859 20.6674C6.58739 20.2492 6.50823 19.8347 6.35285 19.4471H16.992L16.0091 20.7802ZM22.7067 22.9746C22.1882 22.9708 21.6865 22.7879 21.2848 22.4561C20.8831 22.1243 20.6054 21.6636 20.4978 21.1503C20.3902 20.6369 20.4592 20.1018 20.6932 19.6335C20.9272 19.1653 21.3123 18.792 21.7847 18.5755L22.0532 19.9957C21.8876 20.1616 21.7914 20.3856 21.7847 20.6212C21.7841 20.7912 21.8294 20.9581 21.9157 21.1039C22.002 21.2497 22.126 21.3689 22.2744 21.4486C22.4227 21.5283 22.5898 21.5654 22.7575 21.5561C22.9252 21.5467 23.0872 21.4912 23.2259 21.3955C23.3647 21.2998 23.4751 21.1675 23.545 21.013C23.6149 20.8585 23.6419 20.6875 23.6228 20.5187C23.6038 20.3498 23.5396 20.1894 23.437 20.0547C23.3345 19.9201 23.1976 19.8164 23.0411 19.7548L22.7472 18.3653C23.3519 18.3707 23.9296 18.619 24.3534 19.0556C24.7771 19.4921 25.0122 20.0811 25.0068 20.693C25.0014 21.3049 24.7561 21.8896 24.3247 22.3184C23.8934 22.7473 23.3114 22.9851 22.7067 22.9797V22.9746Z" fill="#D12421"/>
</g>
<defs>
<clipPath id="clip0">
<rect width="26" height="24" fill="white"/>
</clipPath>
</defs>
</svg>
