<svg width="21" height="22" viewBox="0 0 21 22" fill="none" xmlns="http://www.w3.org/2000/svg">
<g clip-path="url(#clip0)">
<path d="M20.6776 3.75394C18.989 3.30116 17.3464 2.70949 15.7691 1.98583C15.4 1.82293 14.9927 1.5885 14.5642 1.35805C13.4061 0.726304 12.0909 -0.000804326 10.6061 -0.000804326C10.571 -0.00685266 10.5351 -0.00685266 10.5 -0.000804326C10.4649 -0.00685266 10.429 -0.00685266 10.3939 -0.000804326C8.90909 -0.000804326 7.59394 0.726304 6.43576 1.36997C6.01151 1.60837 5.58727 1.83485 5.23091 1.99775C3.65283 2.71667 2.01035 3.30432 0.322421 3.75394C0.228292 3.77569 0.144958 3.82698 0.0862937 3.89928C0.0276291 3.97157 -0.00282655 4.0605 -3.05209e-06 4.15126C-3.05209e-06 16.9492 10.1012 21.9038 10.203 21.9555C10.2621 21.9838 10.3275 21.9988 10.3939 21.9992C10.429 22.0049 10.4649 22.0049 10.5 21.9992C10.5351 22.0049 10.571 22.0049 10.6061 21.9992C10.6725 21.9988 10.7379 21.9838 10.797 21.9555C12.7572 20.905 14.492 19.5227 15.9133 17.8789C18.2339 15.2963 21.0042 10.8105 21.0042 4.12345C21.0002 4.03693 20.9661 3.95401 20.9072 3.88731C20.8482 3.82061 20.7676 3.77377 20.6776 3.75394ZM10.4958 21.2006C8.67011 20.1907 7.04758 18.889 5.70182 17.3544C3.52545 14.9149 0.93333 10.727 0.848482 4.44528C2.47432 3.98722 4.05887 3.40929 5.58727 2.71691C6.01151 2.53812 6.43576 2.31959 6.86 2.05338C7.93333 1.46136 9.14242 0.79385 10.3939 0.79385C10.429 0.799898 10.4649 0.799898 10.5 0.79385C10.5351 0.799898 10.571 0.799898 10.6061 0.79385C11.8788 0.79385 13.0667 1.46136 14.1315 2.05338C14.5433 2.29484 14.9681 2.51632 15.4042 2.71691C16.9315 3.40864 18.5146 3.98656 20.1388 4.44528C19.9988 15.8923 11.4545 20.692 10.5 21.2006H10.4958Z" fill="#D12421"/>
<path d="M10.3939 13.6998C10.2894 13.7006 10.1881 13.6652 10.1097 13.6005L6.50364 10.5967C6.42648 10.525 6.38162 10.4283 6.37831 10.3266C6.375 10.2249 6.4135 10.1259 6.48586 10.0499C6.55822 9.97402 6.65893 9.927 6.76722 9.91857C6.87551 9.91014 6.98313 9.94095 7.06788 10.0046L10.3006 12.7144L14.4879 6.53201C14.5481 6.44296 14.6436 6.37996 14.7534 6.35686C14.8632 6.33376 14.9783 6.35246 15.0733 6.40884C15.1684 6.46521 15.2357 6.55465 15.2603 6.65748C15.285 6.76031 15.265 6.8681 15.2049 6.95715L10.7503 13.5091C10.7174 13.5571 10.6739 13.5979 10.6226 13.6288C10.5714 13.6596 10.5136 13.6798 10.4533 13.6879L10.3939 13.6998Z" fill="#D12421"/>
</g>
<defs>
<clipPath id="clip0">
<rect width="21" height="22" fill="white"/>
</clipPath>
</defs>
</svg>
