<svg width="25" height="25" viewBox="0 0 25 25" fill="none" xmlns="http://www.w3.org/2000/svg">
<path d="M11.1025 1C10.984 1.00006 10.8694 1.04222 10.7791 1.11895C10.6887 1.19568 10.6286 1.302 10.6094 1.41895L10.123 4.39648C9.53826 4.5666 8.98062 4.79614 8.45508 5.08203L5.99805 3.32715C5.90185 3.25846 5.78443 3.22606 5.66662 3.23572C5.54881 3.24537 5.43822 3.29645 5.35449 3.37988L3.40918 5.32324C3.32605 5.40643 3.2749 5.51626 3.26472 5.63342C3.25454 5.75058 3.28598 5.86759 3.35352 5.96387L5.08203 8.43652C4.79173 8.96514 4.55711 9.52591 4.38281 10.1162L1.41797 10.6094C1.30138 10.629 1.19552 10.6893 1.11918 10.7796C1.04284 10.8699 1.00096 10.9843 1.00098 11.1025V13.8525C1.00076 13.9701 1.04195 14.0839 1.11731 14.1741C1.19267 14.2643 1.29739 14.325 1.41309 14.3457L4.37988 14.8711C4.55323 15.4604 4.78636 16.0215 5.07715 16.5508L3.32715 18.999C3.25846 19.0952 3.22606 19.2126 3.23572 19.3305C3.24537 19.4483 3.29645 19.5588 3.37988 19.6426L5.32422 21.5879C5.40723 21.6709 5.5168 21.7221 5.63375 21.7325C5.7507 21.7428 5.86756 21.7117 5.96387 21.6445L8.44141 19.9102C8.9685 20.1977 9.5275 20.429 10.1143 20.6006L10.6094 23.582C10.6288 23.6988 10.689 23.8049 10.7793 23.8814C10.8696 23.958 10.9842 24 11.1025 24H13.8525C13.9702 24.0002 14.0842 23.9588 14.1744 23.8833C14.2646 23.8077 14.3252 23.7028 14.3457 23.5869L14.876 20.5938C15.4603 20.4195 16.0167 20.1848 16.541 19.8955L19.0352 21.6455C19.1314 21.713 19.2484 21.7445 19.3656 21.7343C19.4828 21.7241 19.5926 21.673 19.6758 21.5898L21.6201 19.6436C21.7039 19.5596 21.7551 19.4486 21.7646 19.3303C21.7741 19.2121 21.7412 19.0943 21.6719 18.998L19.8936 16.5293C20.1779 16.0075 20.407 15.4544 20.5771 14.874L23.5859 14.3467C23.7018 14.3262 23.8068 14.2655 23.8823 14.1753C23.9579 14.0851 23.9992 13.9712 23.999 13.8535V11.1035C23.999 10.985 23.9568 10.8704 23.8801 10.78C23.8033 10.6897 23.697 10.6296 23.5801 10.6104L20.5762 10.1191C20.4048 9.53941 20.1751 8.98736 19.8906 8.46582L21.6445 5.9668C21.7121 5.87052 21.7435 5.75351 21.7333 5.63635C21.7231 5.51919 21.672 5.40936 21.5889 5.32617L19.6436 3.38184C19.5596 3.29804 19.4486 3.24683 19.3303 3.23735C19.2121 3.22787 19.0943 3.26074 18.998 3.33008L16.5361 5.10059C16.0116 4.81241 15.4549 4.579 14.8691 4.40625L14.3457 1.41406C14.3254 1.29801 14.2649 1.19284 14.1746 1.11708C14.0844 1.04133 13.9703 0.999868 13.8525 1H11.1025ZM11.5283 2H13.4326L13.9307 4.84277C13.9472 4.93812 13.9911 5.02661 14.057 5.0975C14.1229 5.1684 14.2079 5.21866 14.3018 5.24219C15.033 5.42442 15.7198 5.71327 16.3467 6.09277C16.4305 6.14356 16.5274 6.16859 16.6253 6.16477C16.7232 6.16095 16.8179 6.12845 16.8975 6.07129L19.2373 4.38965L20.584 5.73633L18.918 8.11035C18.8623 8.18955 18.8309 8.28319 18.8274 8.37992C18.8239 8.47664 18.8486 8.5723 18.8984 8.65527C19.2742 9.28074 19.5592 9.96319 19.7412 10.6904C19.7649 10.7851 19.8158 10.8709 19.8877 10.937C19.9595 11.0031 20.0492 11.0467 20.1455 11.0625L22.999 11.5293V13.4336L20.1396 13.9355C20.0442 13.9524 19.9558 13.9967 19.885 14.0629C19.8143 14.1291 19.7643 14.2145 19.7412 14.3086C19.5613 15.0349 19.2761 15.7173 18.9004 16.3428C18.85 16.4266 18.8252 16.5233 18.8292 16.621C18.8332 16.7188 18.8657 16.8132 18.9229 16.8926L20.6123 19.2373L19.2656 20.585L16.8955 18.9219C16.8159 18.8661 16.7218 18.8348 16.6247 18.8317C16.5276 18.8285 16.4316 18.8538 16.3486 18.9043C15.7249 19.2838 15.0374 19.574 14.3086 19.7588C14.2152 19.7823 14.1305 19.8324 14.0649 19.9029C13.9992 19.9734 13.9553 20.0614 13.9385 20.1562L13.4336 23H11.5264L11.0557 20.1689C11.0396 20.0726 10.9958 19.9831 10.9295 19.9115C10.8632 19.8398 10.7774 19.7891 10.6826 19.7656C9.95093 19.5853 9.26105 19.2969 8.62988 18.918C8.54702 18.8683 8.45155 18.8438 8.35502 18.8472C8.25849 18.8507 8.16503 18.8821 8.08594 18.9375L5.73438 20.585L4.38672 19.2354L6.04883 16.9121C6.10563 16.8325 6.13785 16.738 6.1415 16.6403C6.14514 16.5426 6.12005 16.4459 6.06934 16.3623C5.68633 15.7294 5.39666 15.0396 5.21387 14.3047C5.19048 14.2111 5.14051 14.1262 5.06999 14.0604C4.99946 13.9945 4.9114 13.9505 4.81641 13.9336L2.00098 13.4336V11.5264L4.81445 11.0586C4.91063 11.0426 5.00005 10.9989 5.07171 10.9328C5.14337 10.8667 5.19414 10.7811 5.21777 10.6865C5.40214 9.94907 5.69166 9.25937 6.07324 8.62793C6.12356 8.54503 6.14869 8.44929 6.14557 8.35237C6.14245 8.25545 6.11121 8.16152 6.05567 8.08203L4.41309 5.73438L5.76172 4.38672L8.09277 6.05273C8.17208 6.10928 8.26617 6.14144 8.36349 6.14525C8.46082 6.14907 8.55714 6.12438 8.64063 6.07422C9.26845 5.69715 9.95993 5.41104 10.6924 5.23145C10.7876 5.208 10.8738 5.15709 10.9403 5.08503C11.0068 5.01297 11.0507 4.92295 11.0664 4.82617L11.5283 2ZM12.5 8.5C10.2968 8.5 8.5 10.2968 8.5 12.5C8.5 14.7032 10.2968 16.5 12.5 16.5C14.7032 16.5 16.5 14.7032 16.5 12.5C16.5 10.2968 14.7032 8.5 12.5 8.5ZM12.5 9.5C14.1628 9.5 15.5 10.8372 15.5 12.5C15.5 14.1628 14.1628 15.5 12.5 15.5C10.8372 15.5 9.5 14.1628 9.5 12.5C9.5 10.8372 10.8372 9.5 12.5 9.5Z" fill="#D12421"/>
</svg>
