<svg width="20" height="26" viewBox="0 0 20 26" fill="none" xmlns="http://www.w3.org/2000/svg">
<g clip-path="url(#clip0)">
<path d="M19.5111 3.01647H13.8401V1.73935C13.8469 1.50944 13.8079 1.28053 13.7256 1.06666C13.6433 0.852788 13.5194 0.658456 13.3614 0.495574C13.2035 0.332691 13.0149 0.20469 12.8072 0.119414C12.5995 0.0341386 12.3771 -0.00661526 12.1535 -0.000349621H7.42117C7.04094 0.0174092 6.68148 0.183081 6.41554 0.463133C6.1496 0.743185 5.99704 1.1167 5.98876 1.50806V3.01647H0.488878C0.35922 3.01647 0.234871 3.06945 0.143189 3.16374C0.0515067 3.25804 0 3.38593 0 3.51928C0 3.65263 0.0515067 3.78052 0.143189 3.87482C0.234871 3.96911 0.35922 4.02208 0.488878 4.02208H1.35908V24.5164C1.37737 24.89 1.52571 25.2444 1.77702 25.5149C2.02833 25.7854 2.36585 25.9539 2.72794 25.9896H2.80127H17.1107C18.1569 25.9896 18.5774 24.984 18.68 24.451C18.6824 24.4226 18.6824 24.394 18.68 24.3655V4.02208H19.5062C19.6359 4.02208 19.7602 3.96911 19.8519 3.87482C19.9436 3.78052 19.9951 3.65263 19.9951 3.51928C19.9951 3.38593 19.9436 3.25804 19.8519 3.16374C19.7602 3.06945 19.6359 3.01647 19.5062 3.01647H19.5111ZM6.96651 1.50806C6.96651 1.11085 7.34784 1.00526 7.4945 1.00526H12.1535C12.2487 0.99848 12.3442 1.01286 12.4336 1.04743C12.5229 1.08199 12.6039 1.13593 12.6712 1.20557C12.7384 1.27522 12.7903 1.35894 12.8233 1.45104C12.8563 1.54315 12.8696 1.64148 12.8624 1.73935V3.01647H6.96651V1.50806ZM17.7218 24.3153C17.6925 24.4611 17.5458 24.984 17.1254 24.984H2.84038C2.73283 24.9588 2.3515 24.8533 2.3515 24.4812V4.02208H17.7072L17.7218 24.3153Z" fill="#D12421"/>
<path d="M13.3512 22.4605C13.2216 22.4605 13.0972 22.4076 13.0056 22.3133C12.9139 22.219 12.8624 22.0911 12.8624 21.9577V7.25573C12.8624 7.12238 12.9139 6.99449 13.0056 6.9002C13.0972 6.8059 13.2216 6.75293 13.3512 6.75293C13.4809 6.75293 13.6053 6.8059 13.6969 6.9002C13.7886 6.99449 13.8401 7.12238 13.8401 7.25573V21.9577C13.8401 22.0911 13.7886 22.219 13.6969 22.3133C13.6053 22.4076 13.4809 22.4605 13.3512 22.4605Z" fill="#D12421"/>
<path d="M6.47765 22.4605C6.34799 22.4605 6.22364 22.4076 6.13196 22.3133C6.04028 22.219 5.98877 22.0911 5.98877 21.9577V7.25573C5.98877 7.12238 6.04028 6.99449 6.13196 6.9002C6.22364 6.8059 6.34799 6.75293 6.47765 6.75293C6.60731 6.75293 6.73165 6.8059 6.82334 6.9002C6.91502 6.99449 6.96653 7.12238 6.96653 7.25573V21.9577C6.96653 22.0911 6.91502 22.219 6.82334 22.3133C6.73165 22.4076 6.60731 22.4605 6.47765 22.4605Z" fill="#D12421"/>
<path d="M10.0758 22.4605C9.94613 22.4605 9.82179 22.4076 9.7301 22.3133C9.63842 22.219 9.58691 22.0911 9.58691 21.9577V7.25573C9.58691 7.12238 9.63842 6.99449 9.7301 6.9002C9.82179 6.8059 9.94613 6.75293 10.0758 6.75293C10.2055 6.75293 10.3298 6.8059 10.4215 6.9002C10.5132 6.99449 10.5647 7.12238 10.5647 7.25573V21.9577C10.5647 22.0911 10.5132 22.219 10.4215 22.3133C10.3298 22.4076 10.2055 22.4605 10.0758 22.4605Z" fill="#D12421"/>
</g>
<defs>
<clipPath id="clip0">
<rect width="20" height="26" fill="white"/>
</clipPath>
</defs>
</svg>
